<svg width="19" height="17" viewBox="0 0 19 17" fill="none" xmlns="http://www.w3.org/2000/svg">
<g clip-path="url(#clip0_104_90)">
<path fill-rule="evenodd" clip-rule="evenodd" d="M7.60001 16V11H11.4V16C11.4 16.55 11.8275 17 12.35 17H15.2C15.7225 17 16.15 16.55 16.15 16V8.99997H17.765C18.202 8.99997 18.411 8.42997 18.0785 8.12997L10.1365 0.599971C9.77551 0.259971 9.22451 0.259971 8.86351 0.599971L0.921514 8.12997C0.598514 8.42997 0.798014 8.99997 1.23501 8.99997H2.85001V16C2.85001 16.55 3.27751 17 3.80001 17H6.65001C7.17251 17 7.60001 16.55 7.60001 16Z" fill="#666666"/>
</g>
<defs>
<clipPath id="clip0_104_90">
<rect width="19" height="17" fill="white"/>
</clipPath>
</defs>
</svg>
