<svg width="21" height="18" viewBox="0 0 21 18" fill="none" xmlns="http://www.w3.org/2000/svg">
<g clip-path="url(#clip0_133_279)">
<path fill-rule="evenodd" clip-rule="evenodd" d="M19 -0.5H2.19998C1.04498 -0.5 0.0999756 0.5125 0.0999756 1.75V15.25C0.0999756 16.4875 1.04498 17.5 2.19998 17.5H19C20.155 17.5 21.1 16.4875 21.1 15.25V1.75C21.1 0.5125 20.155 -0.5 19 -0.5ZM18.58 4.28125L11.713 8.8825C11.0305 9.34375 10.1695 9.34375 9.48697 8.8825L2.61998 4.28125C2.35748 4.10125 2.19998 3.7975 2.19998 3.47125C2.19998 2.7175 2.96648 2.2675 3.56498 2.66125L10.6 7.375L17.635 2.66125C18.2335 2.2675 19 2.7175 19 3.47125C19 3.7975 18.8425 4.10125 18.58 4.28125Z" fill="white"/>
</g>
<defs>
<clipPath id="clip0_133_279">
<rect width="21" height="18" fill="white"/>
</clipPath>
</defs>
</svg>
