<svg width="19" height="17" viewBox="0 0 19 17" fill="none" xmlns="http://www.w3.org/2000/svg">
<path d="M5.54168 5.66669H3.95834V7.08335H5.54168V5.66669Z" fill="#67748E"/>
<path d="M8.70833 5.66669H7.125V7.08335H8.70833V5.66669Z" fill="#67748E"/>
<path d="M11.875 5.66669H10.2917V7.08335H11.875V5.66669Z" fill="#67748E"/>
<path d="M15.0417 5.66669H13.4583V7.08335H15.0417V5.66669Z" fill="#67748E"/>
<path d="M5.54168 7.79169H3.95834V9.20835H5.54168V7.79169Z" fill="#67748E"/>
<path d="M8.70833 7.79169H7.125V9.20835H8.70833V7.79169Z" fill="#67748E"/>
<path d="M11.875 7.79169H10.2917V9.20835H11.875V7.79169Z" fill="#67748E"/>
<path d="M15.0417 7.79169H13.4583V9.20835H15.0417V7.79169Z" fill="#67748E"/>
<path d="M5.54168 9.91669H3.95834V11.3334H5.54168V9.91669Z" fill="#67748E"/>
<path d="M8.70833 9.91669H7.125V11.3334H8.70833V9.91669Z" fill="#67748E"/>
<path d="M11.875 9.91669H10.2917V11.3334H11.875V9.91669Z" fill="#67748E"/>
<path d="M15.0417 9.91669H13.4583V11.3334H15.0417V9.91669Z" fill="#67748E"/>
<path d="M5.54168 12.0417H3.95834V13.4584H5.54168V12.0417Z" fill="#67748E"/>
<path d="M8.70833 12.0417H7.125V13.4584H8.70833V12.0417Z" fill="#67748E"/>
<path d="M11.875 12.0417H10.2917V13.4584H11.875V12.0417Z" fill="#67748E"/>
<path d="M15.8333 0.708313H12.6667V2.83331H11.0833V2.38706C11.0833 2.12969 10.9691 1.88286 10.7657 1.70087C10.5623 1.51889 10.2864 1.41665 9.99874 1.41665H9.00124C8.71359 1.41665 8.43772 1.51889 8.23432 1.70087C8.03092 1.88286 7.91666 2.12969 7.91666 2.38706V2.83331H6.33332V0.708313H3.16666C2.53677 0.708313 1.93268 0.932196 1.48728 1.33071C1.04188 1.72923 0.791656 2.26973 0.791656 2.83331V14.1666C0.791656 14.7302 1.04188 15.2707 1.48728 15.6692C1.93268 16.0678 2.53677 16.2916 3.16666 16.2916H15.8333C16.4632 16.2916 17.0673 16.0678 17.5127 15.6692C17.9581 15.2707 18.2083 14.7302 18.2083 14.1666V2.83331C18.2083 2.26973 17.9581 1.72923 17.5127 1.33071C17.0673 0.932196 16.4632 0.708313 15.8333 0.708313V0.708313ZM16.625 14.1666C16.625 14.3545 16.5416 14.5347 16.3931 14.6675C16.2446 14.8004 16.0433 14.875 15.8333 14.875H3.16666C2.95669 14.875 2.75533 14.8004 2.60686 14.6675C2.4584 14.5347 2.37499 14.3545 2.37499 14.1666V2.83331C2.37499 2.64545 2.4584 2.46528 2.60686 2.33245C2.75533 2.19961 2.95669 2.12498 3.16666 2.12498H4.74999V4.24998H14.25V2.12498H15.8333C16.0433 2.12498 16.2446 2.19961 16.3931 2.33245C16.5416 2.46528 16.625 2.64545 16.625 2.83331V14.1666Z" fill="#67748E"/>
</svg>
