<svg width="21" height="21" viewBox="0 0 21 21" fill="none" xmlns="http://www.w3.org/2000/svg">
<path fill-rule="evenodd" clip-rule="evenodd" d="M12.4546 1.53686C11.9571 -0.512285 9.04286 -0.512285 8.54539 1.53686C8.22404 2.86058 6.70746 3.48877 5.54421 2.77999C3.74348 1.68278 1.68278 3.74348 2.77999 5.54421C3.48877 6.70746 2.86058 8.22403 1.53686 8.54539C-0.512285 9.04286 -0.512285 11.9571 1.53686 12.4546C2.86058 12.776 3.48877 14.2926 2.77999 15.4557C1.68278 17.2565 3.74348 19.3172 5.54422 18.22C6.70746 17.5112 8.22404 18.1394 8.54539 19.4632C9.04286 21.5123 11.9571 21.5123 12.4546 19.4632C12.776 18.1394 14.2926 17.5112 15.4557 18.22C17.2565 19.3172 19.3172 17.2565 18.22 15.4557C17.5112 14.2926 18.1394 12.776 19.4632 12.4546C21.5123 11.9571 21.5123 9.04286 19.4632 8.54539C18.1394 8.22403 17.5112 6.70746 18.22 5.54421C19.3172 3.74348 17.2565 1.68278 15.4557 2.77999C14.2926 3.48877 12.776 2.86058 12.4546 1.53686ZM10.5 14.4375C12.6747 14.4375 14.4375 12.6747 14.4375 10.5C14.4375 8.32539 12.6747 6.56251 10.5 6.56251C8.32536 6.56251 6.56247 8.32539 6.56247 10.5C6.56247 12.6747 8.32536 14.4375 10.5 14.4375Z" fill="white"/>
</svg>
