<svg width="21" height="21" viewBox="0 0 21 21" fill="none" xmlns="http://www.w3.org/2000/svg">
<path fill-rule="evenodd" clip-rule="evenodd" d="M21 10.5C21 16.299 16.299 21 10.5 21C4.70101 21 0 16.299 0 10.5C0 4.70101 4.70101 0 10.5 0C16.299 0 21 4.70101 21 10.5ZM13.125 6.56249C13.125 8.01224 11.9498 9.18749 10.5 9.18749C9.05025 9.18749 7.875 8.01224 7.875 6.56249C7.875 5.11275 9.05025 3.93749 10.5 3.93749C11.9498 3.93749 13.125 5.11275 13.125 6.56249ZM10.4999 11.8125C7.8519 11.8125 5.57018 13.3809 4.53305 15.6394C5.97718 17.3145 8.11474 18.375 10.5 18.375C12.8852 18.375 15.0228 17.3146 16.4669 15.6395C15.4298 13.3809 13.148 11.8125 10.4999 11.8125Z" fill="#666666"/>
</svg>
