<svg width="13" height="16" viewBox="0 0 13 16" fill="none" xmlns="http://www.w3.org/2000/svg">
<path opacity="0.603585" d="M13 14.1234H11.814V1.47982H1.73334V0.215454H12.407C12.7343 0.215454 13 0.498671 13 0.847635V14.1234Z" fill="#3A416F"/>
<path fill-rule="evenodd" clip-rule="evenodd" d="M0.625926 3.69244H10.6407C10.9863 3.69244 11.2667 3.96504 11.2667 4.30092V15.2534C11.2667 15.5893 10.9863 15.8619 10.6407 15.8619H0.625926C0.280415 15.8619 0 15.5893 0 15.2534V4.30092C0 3.96504 0.280415 3.69244 0.625926 3.69244ZM2.5037 12.8196H6.25926V11.6026H2.5037V12.8196ZM8.76296 10.3857H2.5037V9.16871H8.76296V10.3857ZM2.5037 7.95176H8.76296V6.73481H2.5037V7.95176Z" fill="#3A416F"/>
</svg>
