<svg width="15" height="15" viewBox="0 0 15 15" fill="none" xmlns="http://www.w3.org/2000/svg">
<path d="M13.8692 7.16842C13.7305 6.30211 12.8021 6.27003 12.0552 6.38233C11.6603 6.4465 11.3402 6.69516 11.3402 6.69516C10.9561 6.43045 10.7533 6.25398 10.1557 6.29409C9.60084 6.32618 9.16333 6.5989 9.16333 6.5989C8.85388 6.18981 8.02154 6.31013 8.02154 6.31013C7.69074 6.40639 7.68007 6.26201 7.68007 6.07751C7.69074 5.62029 7.68007 5.16308 7.68007 4.70586C7.68007 4.39302 7.54135 4.12832 7.24256 3.91174C6.78371 3.57484 6.23949 3.45452 5.62058 3.63099C4.91629 3.83153 4.59616 4.2326 4.58549 4.78607C4.57482 5.71655 4.58549 6.63901 4.58549 7.56949C4.58549 8.25131 4.58549 8.94115 4.58549 9.62297C4.58549 10.2567 4.58549 10.8823 4.85227 11.4919C5.44984 12.8796 7.31726 13.8984 9.29138 13.8903C11.2655 13.8823 13.1543 12.8796 13.6665 11.5C14.1894 10.0722 13.9653 8.61227 13.8692 7.16842ZM12.8875 10.5775C12.7808 12.0133 11.1588 13.1123 9.25937 13.1123C7.35994 13.1123 5.73796 12.0053 5.63125 10.5775C5.56722 9.61494 5.62058 8.64436 5.62058 7.67377C5.6099 7.67377 5.6099 7.67377 5.59923 7.67377C5.59923 6.74329 5.59923 5.82083 5.59923 4.89035C5.59923 4.59356 5.66326 4.32885 6.15412 4.33687C6.6023 4.34489 6.677 4.60158 6.677 4.88233C6.677 5.95719 6.677 7.03206 6.677 8.10692C6.677 8.37965 6.70901 8.65238 7.16786 8.6604C7.63739 8.66842 7.68007 8.40372 7.68007 8.12297C7.68007 7.90639 7.6694 7.68981 7.69074 7.48126C7.72275 7.24061 7.89349 7.06414 8.23496 7.07216C8.56576 7.08019 8.74717 7.24061 8.74717 7.4973C8.74717 7.73794 8.73649 7.97858 8.74717 8.21922C8.75784 8.45986 8.87522 8.64436 9.23803 8.65238C9.63286 8.6604 9.76091 8.45987 9.77158 8.20318C9.78225 7.97858 9.77158 7.74596 9.77158 7.52136C9.77158 7.24864 9.93164 7.07217 10.2945 7.06414C10.6679 7.06414 10.8173 7.25666 10.8387 7.51334C10.8493 7.73794 10.8493 7.97056 10.8387 8.19516C10.8387 8.45986 10.9774 8.65238 11.3615 8.64436C11.7137 8.63634 11.8417 8.45987 11.8417 8.20318C11.8417 7.96254 11.8311 7.7219 11.8417 7.48126C11.8631 7.24061 12.0125 7.05612 12.3646 7.05612C12.7274 7.05612 12.9088 7.22457 12.9088 7.4973C12.9195 8.53206 12.9622 9.55879 12.8875 10.5775Z" fill="#3A416F"/>
<path d="M3.57174 6.45457C3.39034 6.45457 3.2196 6.3904 3.12356 6.27008C2.77142 5.85296 2.57935 5.36366 2.57935 4.85831C2.57935 3.40644 4.14798 2.22729 6.07942 2.22729C8.01086 2.22729 9.57949 3.40644 9.57949 4.85831C9.57949 5.08291 9.34473 5.25938 9.04595 5.25938C8.74716 5.25938 8.5124 5.08291 8.5124 4.85831C8.5124 3.84762 7.42396 3.02943 6.07942 3.02943C4.73488 3.02943 3.64644 3.85564 3.64644 4.85831C3.64644 5.20323 3.77449 5.54815 4.01992 5.83692C4.17999 6.02141 4.10529 6.27008 3.85986 6.3904C3.76382 6.4305 3.66778 6.45457 3.57174 6.45457Z" fill="#3A416F"/>
<path d="M2.23783 7.04011C2.05642 7.04011 1.88569 6.97594 1.78965 6.85562C1.27745 6.24599 1 5.54011 1 4.81016C1 2.70856 3.27291 1 6.0687 1C8.86449 1 11.1481 2.70856 11.1481 4.81818C11.1481 5.04278 10.9133 5.21925 10.6145 5.21925C10.3157 5.21925 10.081 5.04278 10.081 4.81818C10.081 3.15775 8.28826 1.80214 6.0687 1.80214C3.84915 1.80214 2.0671 3.14973 2.0671 4.81818C2.0671 5.39572 2.28052 5.9492 2.68601 6.43048C2.84608 6.61497 2.77138 6.86364 2.52595 6.98396C2.42991 7.02406 2.33387 7.04011 2.23783 7.04011Z" fill="#3A416F"/>
</svg>
