<?xml version="1.0" encoding="UTF-8" standalone="no"?> <svg xmlns="http://www.w3.org/2000/svg" width="24" height="24" viewBox="0 0 24 24">
  <path fill-rule="evenodd" d="M17,2 C17.5522847,2 18,2.44771525 18,3 L18,4 L19,4 C20.6568542,4 22,5.34314575 22,7 L22,19 C22,20.6568542 20.6568542,22 19,22 L5,22 C3.34314575,22 2,20.6568542 2,19 L2,7 C2,5.34314575 3.34314575,4 5,4 L6,4 L6,3 C6,2.44771525 6.44771525,2 7,2 C7.55228475,2 8,2.44771525 8,3 L8,4 L16,4 L16,3 C16,2.44771525 16.4477153,2 17,2 Z M20,12 L4,12 L4,19 C4,19.5522847 4.44771525,20 5,20 L19,20 C19.5522847,20 20,19.5522847 20,19 L20,12 Z M17,14 C17.5522847,14 18,14.4477153 18,15 L18,17 C18,17.5522847 17.5522847,18 17,18 L15,18 C14.4477153,18 14,17.5522847 14,17 L14,15 C14,14.4477153 14.4477153,14 15,14 L17,14 Z M6,6 L5,6 C4.44771525,6 4,6.44771525 4,7 L4,10 L20,10 L20,7 C20,6.44771525 19.5522847,6 19,6 L18,6 L18,7 C18,7.55228475 17.5522847,8 17,8 C16.4477153,8 16,7.55228475 16,7 L16,6 L8,6 L8,7 C8,7.55228475 7.55228475,8 7,8 C6.44771525,8 6,7.55228475 6,7 L6,6 Z"/>
</svg>
