<svg width="15" height="15" viewBox="0 0 15 15" fill="none" xmlns="http://www.w3.org/2000/svg">
<path d="M10.625 1.875H13.125C13.2908 1.875 13.4497 1.94085 13.5669 2.05806C13.6842 2.17527 13.75 2.33424 13.75 2.5V12.5C13.75 12.6658 13.6842 12.8247 13.5669 12.9419C13.4497 13.0592 13.2908 13.125 13.125 13.125H1.875C1.70924 13.125 1.55027 13.0592 1.43306 12.9419C1.31585 12.8247 1.25 12.6658 1.25 12.5V2.5C1.25 2.33424 1.31585 2.17527 1.43306 2.05806C1.55027 1.94085 1.70924 1.875 1.875 1.875H4.375V0.625H5.625V1.875H9.375V0.625H10.625V1.875ZM2.5 5.625V11.875H12.5V5.625H2.5ZM3.75 8.125H6.875V10.625H3.75V8.125Z" fill="#3A416F"/>
</svg>
